<svg width="49" height="49" viewBox="0 0 49 49" fill="none" xmlns="http://www.w3.org/2000/svg">
<path d="M18.3142 14.8627H13.5688C13.4544 14.8627 13.3455 14.8135 13.2698 14.7276C13.1941 14.6416 13.159 14.5274 13.1735 14.4139L13.9463 8.34108C13.9718 8.14226 14.1412 7.99304 14.3416 7.99304H17.5416C17.7422 7.99304 17.9114 8.14226 17.9369 8.34108L18.7096 14.4139C18.724 14.5274 18.6889 14.6418 18.6134 14.7276C18.5375 14.8135 18.4285 14.8627 18.3142 14.8627ZM14.021 14.0658H17.8618L17.1904 8.78992H14.6924L14.021 14.0658Z" fill="#3762CC"/>
<path d="M18.3142 14.8627H13.5688C13.3947 14.8627 13.2409 14.7497 13.1887 14.5836C13.1365 14.4176 13.1982 14.237 13.3411 14.1375L15.2446 12.8117L13.7276 11.7551C13.6262 11.6844 13.5632 11.5704 13.5574 11.4467C13.5517 11.3232 13.6035 11.2039 13.6981 11.124L15.3253 9.74617L14.0844 8.69569C13.9567 8.58771 13.9101 8.4114 13.9676 8.25442C14.0252 8.09743 14.1746 7.99304 14.3418 7.99304H17.5418C17.709 7.99304 17.8584 8.09723 17.9159 8.25442C17.9735 8.4116 17.9269 8.58771 17.7992 8.69569L16.5583 9.74617L18.1855 11.124C18.2801 11.2039 18.3319 11.3232 18.3261 11.4467C18.3204 11.5704 18.2572 11.6842 18.156 11.7551L16.639 12.8117L18.5425 14.1375C18.6853 14.237 18.7469 14.4176 18.6949 14.5836C18.6421 14.7497 18.4883 14.8627 18.3142 14.8627ZM14.8376 14.0658H17.045L15.9413 13.2972L14.8376 14.0658ZM14.6079 11.3973L15.9413 12.3261L17.2747 11.3973L15.9413 10.2683L14.6079 11.3973ZM15.4285 8.78992L15.9413 9.22421L16.4541 8.78992H15.4285Z" fill="#3762CC"/>
<path d="M27.935 28.4391C28.2227 28.4391 28.4845 28.2775 28.606 28.0251L30.1964 24.7218C30.3179 24.4692 30.5797 24.3081 30.8673 24.3081H35.8277L35.6709 21.9953C35.6454 21.6184 35.3223 21.3256 34.9322 21.3256H19.4615H3.99074C3.60067 21.3256 3.27754 21.6186 3.25204 21.9953L2.81535 28.4393H27.935V28.4391Z" fill="#A4C9FF"/>
<path d="M30.1964 24.7216C30.3179 24.469 30.5797 24.3079 30.8673 24.3079H33.3422V23.0263C33.3422 22.7494 33.1179 22.5251 32.8412 22.5251H26.9878V26.7447H29.2224L30.1964 24.7216Z" fill="#E0EBFC"/>
<path d="M30.8673 24.3079H44.3855C44.6921 24.3079 44.9408 24.5485 44.9408 24.8456V26.0295C44.9408 26.1241 44.9151 26.217 44.8661 26.2989L38.1954 37.4605C37.8645 38.0141 37.2541 38.355 36.5935 38.355H3.52358C2.61195 38.355 1.83619 37.7123 1.69515 36.8403L0.403013 28.8528C0.367751 28.6355 0.54147 28.4391 0.768779 28.4391H27.9352C28.2229 28.4391 28.4847 28.2777 28.6062 28.0251L30.1964 24.7218C30.3179 24.4692 30.5797 24.3079 30.8673 24.3079Z" fill="#4671C6"/>
<path d="M1.50529 35.6669L1.69515 36.8401C1.8362 37.7121 2.61215 38.355 3.52358 38.355H36.5935C37.2541 38.355 37.8645 38.0141 38.1954 37.4603L39.2672 35.6669H1.50529V35.6669Z" fill="#F9A7A7"/>
<path d="M24.9304 15.8293H15.9443H6.95832L6.69017 21.3254H15.9443H25.1984L24.9304 15.8293Z" fill="#A4C9FF"/>
<path d="M25.4458 15.8235H6.44273C6.0682 15.8235 5.76479 15.5199 5.76479 15.1456C5.76479 14.7711 6.0684 14.4677 6.44273 14.4677H25.4458C25.8203 14.4677 26.1237 14.7713 26.1237 15.1456C26.1237 15.5201 25.8203 15.8235 25.4458 15.8235Z" fill="#F9CFCF"/>
<path d="M14.2788 28.4391V21.3254H3.99074C3.60067 21.3254 3.27754 21.6184 3.25204 21.9954L2.81516 28.4393H14.2788V28.4391Z" fill="#6BDDDD"/>
<path d="M20.6333 22.5253H14.2788V26.7447H20.6333V22.5253Z" fill="#E0EBFC"/>
<path d="M26.9878 22.5253H20.6333V26.7449H26.9878V22.5253Z" fill="#E0EBFC"/>
<path d="M24.9966 17.1854H15.2042C14.9998 17.1854 14.834 17.33 14.834 17.5083V19.6406C14.834 19.8189 14.9998 19.9635 15.2042 19.9635H25.1318L24.9966 17.1854Z" fill="#E0EBFC"/>
<path d="M18.3407 8.39148H13.4034C13.1289 8.39148 12.9062 8.16896 12.9062 7.89423V7.4432C12.9062 7.16868 13.1287 6.94595 13.4034 6.94595H18.3407C18.6152 6.94595 18.8379 7.16848 18.8379 7.4432V7.89423C18.8379 8.16896 18.6152 8.39148 18.3407 8.39148Z" fill="#F9CFCF"/>
<path d="M20.6333 27.1434H14.2788C14.0589 27.1434 13.8804 26.9649 13.8804 26.7449V22.5253C13.8804 22.3053 14.0589 22.1268 14.2788 22.1268H20.6333C20.8532 22.1268 21.0317 22.3053 21.0317 22.5253V26.7449C21.0317 26.9649 20.8534 27.1434 20.6333 27.1434ZM14.6772 26.3465H20.2349V22.9237H14.6772V26.3465Z" fill="#3762CC"/>
<path d="M36.5935 38.7534H3.52359C2.40956 38.7534 1.47522 37.9757 1.3019 36.9039L0.00976753 28.9164C-0.0250958 28.6997 0.0370605 28.4791 0.1799 28.311C0.326326 28.1393 0.541084 28.0406 0.768791 28.0406H27.9351C28.0695 28.0406 28.192 27.9667 28.2468 27.8526L29.8374 24.5491C30.0241 24.1607 30.4285 23.9096 30.8674 23.9096H44.3853C44.9113 23.9096 45.339 24.3294 45.339 24.8456V26.0295C45.339 26.1961 45.2936 26.3598 45.2077 26.5035L38.5375 37.6649C38.1361 38.3363 37.391 38.7534 36.5935 38.7534ZM0.804053 28.8375L2.08842 36.7768C2.19898 37.4605 2.80242 37.9568 3.52339 37.9568H36.5933C37.1121 37.9568 37.595 37.6882 37.8534 37.2561L44.5238 26.0945C44.536 26.0743 44.5421 26.052 44.5421 26.0297V24.8458C44.5421 24.7691 44.4716 24.7067 44.3853 24.7067H30.8674C30.7327 24.7067 30.6104 24.7804 30.5556 24.8946L28.965 28.198C28.7782 28.5865 28.3739 28.8377 27.9351 28.8377H0.804053V28.8375Z" fill="#3762CC"/>
<path d="M26.988 27.1434H20.6335C20.4135 27.1434 20.235 26.9649 20.235 26.7449V22.5253C20.235 22.3053 20.4135 22.1268 20.6335 22.1268H26.988C27.2079 22.1268 27.3864 22.3053 27.3864 22.5253V26.7449C27.3864 26.9649 27.2079 27.1434 26.988 27.1434ZM21.0317 26.3465H26.5893V22.9237H21.0317V26.3465Z" fill="#3762CC"/>
<path d="M29.2224 27.1434H26.988C26.768 27.1434 26.5895 26.9649 26.5895 26.7449V22.5253C26.5895 22.3053 26.768 22.1268 26.988 22.1268H32.8414C33.3373 22.1268 33.7409 22.5302 33.7409 23.0265V24.3081C33.7409 24.528 33.5624 24.7065 33.3424 24.7065H30.8675C30.7329 24.7065 30.6106 24.7802 30.5558 24.8944C30.5558 24.8946 30.5556 24.8946 30.5556 24.8946L29.5814 26.9176C29.5149 27.0555 29.3754 27.1434 29.2224 27.1434ZM27.3864 26.3465H28.972L29.8374 24.5493C30.0243 24.1607 30.4287 23.9096 30.8675 23.9096H32.944V23.0265C32.944 22.9699 32.8982 22.9237 32.8414 22.9237H27.3864V26.3465ZM30.1964 24.7217H30.1984H30.1964Z" fill="#3762CC"/>
<path d="M27.9351 28.8375H2.81516C2.70479 28.8375 2.59941 28.7919 2.5241 28.711C2.4486 28.6305 2.41015 28.5221 2.41772 28.4122L2.8544 21.9682C2.89385 21.3841 3.39289 20.9267 3.99055 20.9267H34.932C35.5297 20.9267 36.0287 21.3841 36.0682 21.9682L36.2249 24.2808C36.2325 24.3909 36.1941 24.4993 36.1186 24.5798C36.0433 24.6605 35.9379 24.7063 35.8275 24.7063H30.8674C30.7327 24.7063 30.6104 24.78 30.5556 24.8942L28.965 28.1976C28.7781 28.5863 28.3739 28.8375 27.9351 28.8375ZM3.24149 28.0406H27.9349C28.0693 28.0406 28.1918 27.9667 28.2466 27.8526L29.8372 24.5491C30.0239 24.1606 30.4283 23.9096 30.8672 23.9096H35.4012L35.2733 22.0222C35.2619 21.8547 35.1119 21.7238 34.932 21.7238H3.99055C3.81066 21.7238 3.66064 21.8547 3.64929 22.022L3.24149 28.0406Z" fill="#3762CC"/>
<path d="M14.2788 28.8375H2.81516C2.70479 28.8375 2.59941 28.7919 2.5241 28.711C2.4486 28.6305 2.41015 28.5221 2.41772 28.4122L2.85441 21.9682C2.89405 21.3841 3.39329 20.9267 3.99055 20.9267H14.2788C14.4987 20.9267 14.6772 21.1052 14.6772 21.3252V28.4389C14.6772 28.659 14.4987 28.8375 14.2788 28.8375ZM3.24149 28.0406H13.8802V21.7238H3.99055C3.81066 21.7238 3.66084 21.8549 3.64929 22.0222L3.24149 28.0406Z" fill="#3762CC"/>
<path d="M25.1984 21.7238H6.69016C6.58119 21.7238 6.477 21.679 6.40169 21.6001C6.32639 21.5212 6.28694 21.4148 6.29212 21.3058L6.56027 15.8098C6.57083 15.5976 6.74595 15.4309 6.95831 15.4309H24.9304C25.1428 15.4309 25.3179 15.5976 25.3285 15.8098L25.5966 21.3058C25.6018 21.4148 25.5624 21.5212 25.487 21.6001C25.4117 21.679 25.3074 21.7238 25.1984 21.7238ZM7.10852 20.9269H24.7802L24.5509 16.2278H7.33782L7.10852 20.9269Z" fill="#3762CC"/>
<path d="M25.446 16.222H6.44293C5.84945 16.222 5.36655 15.7391 5.36655 15.1456C5.36655 14.5521 5.84945 14.0692 6.44293 14.0692H25.446C26.0395 14.0692 26.5224 14.5521 26.5224 15.1456C26.5224 15.7391 26.0395 16.222 25.446 16.222ZM6.44293 14.8661C6.28893 14.8661 6.16342 14.9916 6.16342 15.1456C6.16342 15.2996 6.28893 15.4251 6.44293 15.4251H25.446C25.6 15.4251 25.7255 15.2996 25.7255 15.1456C25.7255 14.9916 25.6 14.8661 25.446 14.8661H6.44293Z" fill="#3762CC"/>
<path d="M25.1318 20.3622H15.2042C14.7802 20.3622 14.4356 20.0384 14.4356 19.6406V17.5081C14.4356 17.1103 14.7802 16.7868 15.2042 16.7868H24.9964C25.2087 16.7868 25.3839 16.9535 25.3944 17.1657L25.5299 19.944C25.5351 20.053 25.4956 20.1593 25.4203 20.2382C25.3452 20.3173 25.2408 20.3622 25.1318 20.3622ZM15.2325 19.5645L24.7137 19.5653L24.6171 17.5838H15.2325V19.5645Z" fill="#3762CC"/>
<path d="M18.3407 8.78994H13.4032C12.9094 8.78994 12.5078 8.38811 12.5078 7.89445V7.44342C12.5078 6.94955 12.9096 6.54773 13.4032 6.54773H18.3407C18.8345 6.54773 19.2362 6.94955 19.2362 7.44342V7.89445C19.2364 8.38811 18.8345 8.78994 18.3407 8.78994ZM13.4032 7.3446C13.3489 7.3446 13.3046 7.38903 13.3046 7.44342V7.89445C13.3046 7.94883 13.3489 7.99306 13.4032 7.99306H18.3407C18.3951 7.99306 18.4393 7.94883 18.4393 7.89445V7.44342C18.4393 7.38903 18.3951 7.3446 18.3407 7.3446H13.4032Z" fill="#3762CC"/>
<path d="M44.0859 36.8354C43.753 36.5714 43.154 36.5714 42.8211 36.8354C42.0501 37.4464 40.9048 37.8342 39.6238 37.8342C38.3428 37.8342 37.1973 37.4464 36.4265 36.8354C36.0937 36.5716 35.4946 36.5716 35.1617 36.8354C34.3907 37.4464 33.2454 37.8342 31.9644 37.8342C30.6835 37.8342 29.538 37.4464 28.7672 36.8354C28.4343 36.5716 27.8352 36.5716 27.5023 36.8354C26.7314 37.4464 25.5861 37.8342 24.3051 37.8342C23.0241 37.8342 21.8786 37.4464 21.1078 36.8354C20.7749 36.5716 20.1759 36.5716 19.843 36.8354C19.072 37.4464 17.9267 37.8342 16.6457 37.8342C15.3647 37.8342 14.2192 37.4464 13.4485 36.8354C13.1156 36.5714 12.5165 36.5714 12.1836 36.8354C11.4126 37.4464 10.2673 37.8342 8.98636 37.8342C7.70538 37.8342 6.55987 37.4464 5.78909 36.8354C5.4562 36.5714 4.85715 36.5714 4.52425 36.8354C3.75328 37.4464 2.60797 37.8342 1.32699 37.8342C1.00804 37.8342 0.69766 37.8101 0.399429 37.7647V40.8102V46.0644H48.2119V40.81V37.7645C47.9135 37.8099 47.6031 37.834 47.2844 37.834C46.0022 37.8342 44.8569 37.4464 44.0859 36.8354Z" fill="#E0EBFC"/>
<path d="M8.68015 33.7913C9.64024 33.7913 10.4185 33.013 10.4185 32.0529C10.4185 31.0928 9.64024 30.3145 8.68015 30.3145C7.72007 30.3145 6.94177 31.0928 6.94177 32.0529C6.94177 33.013 7.72007 33.7913 8.68015 33.7913Z" fill="#E0EBFC"/>
<path d="M16.6489 33.7913C17.609 33.7913 18.3873 33.013 18.3873 32.0529C18.3873 31.0928 17.609 30.3145 16.6489 30.3145C15.6888 30.3145 14.9105 31.0928 14.9105 32.0529C14.9105 33.013 15.6888 33.7913 16.6489 33.7913Z" fill="#E0EBFC"/>
<path d="M24.6177 33.7913C25.5777 33.7913 26.356 33.013 26.356 32.0529C26.356 31.0928 25.5777 30.3145 24.6177 30.3145C23.6576 30.3145 22.8793 31.0928 22.8793 32.0529C22.8793 33.013 23.6576 33.7913 24.6177 33.7913Z" fill="#E0EBFC"/>
<path d="M32.5864 33.7913C33.5465 33.7913 34.3248 33.013 34.3248 32.0529C34.3248 31.0928 33.5465 30.3145 32.5864 30.3145C31.6263 30.3145 30.848 31.0928 30.848 32.0529C30.848 33.013 31.6263 33.7913 32.5864 33.7913Z" fill="#E0EBFC"/>
<path d="M47.1919 0.398438H41.413V9.2304H47.1919C47.7547 9.2304 48.2109 8.77419 48.2109 8.2114V1.41744C48.2109 0.854648 47.7547 0.398438 47.1919 0.398438Z" fill="#F9A7A7"/>
<path d="M41.4128 0.398438H34.5864V9.2304H41.4128V0.398438Z" fill="#FFEA92"/>
<path d="M28.8072 9.2304H34.5862V0.398438H28.8072C28.2444 0.398438 27.7882 0.854648 27.7882 1.41744V8.2112C27.7882 8.77399 28.2444 9.2304 28.8072 9.2304Z" fill="#4671C6"/>
<path d="M33.2044 5.37453C33.2006 5.33429 33.1948 5.29484 33.1889 5.2556H33.1895C32.955 3.30704 31.5409 2.24042 31.1789 1.99698C31.1275 1.96231 31.0616 1.96231 31.0102 1.99698C30.6482 2.24042 29.2342 3.30704 28.9997 5.2556H29.0027C28.9859 5.36696 28.9742 5.47992 28.9742 5.59606C28.9742 6.81329 29.9237 7.80002 31.0949 7.80002C32.2661 7.80002 33.2156 6.81329 33.2156 5.59606C33.2152 5.52135 33.2116 5.44744 33.2044 5.37453Z" fill="#A4C9FF"/>
<path d="M45.4229 5.18027C46.0282 5.18027 46.519 4.68953 46.519 4.08417C46.519 3.47881 46.0282 2.98807 45.4229 2.98807C44.8175 2.98807 44.3268 3.47881 44.3268 4.08417C44.3268 4.68953 44.8175 5.18027 45.4229 5.18027Z" fill="#FFEA92"/>
<path d="M45.4229 2.79863C45.3661 2.79863 45.3199 2.75261 45.3199 2.69563V2.12945C45.3199 2.07268 45.3659 2.02646 45.4229 2.02646C45.4796 2.02646 45.5259 2.07248 45.5259 2.12945V2.69563C45.5257 2.75261 45.4796 2.79863 45.4229 2.79863Z" fill="#FFEA92"/>
<path d="M45.4229 6.14192C45.3661 6.14192 45.3199 6.0959 45.3199 6.03893V5.47275C45.3199 5.41597 45.3659 5.36975 45.4229 5.36975C45.4796 5.36975 45.5259 5.41577 45.5259 5.47275V6.03893C45.5257 6.0959 45.4796 6.14192 45.4229 6.14192Z" fill="#FFEA92"/>
<path d="M46.7082 4.0842C46.7082 4.02742 46.7543 3.9812 46.8112 3.9812H47.3774C47.4342 3.9812 47.4804 4.02722 47.4804 4.0842C47.4804 4.14097 47.4344 4.18719 47.3774 4.18719H46.8112C46.7545 4.18719 46.7082 4.14117 46.7082 4.0842Z" fill="#FFEA92"/>
<path d="M43.3651 4.0842C43.3651 4.02742 43.4112 3.9812 43.4681 3.9812H44.0343C44.0911 3.9812 44.1373 4.02722 44.1373 4.0842C44.1373 4.14097 44.0913 4.18719 44.0343 4.18719H43.4681C43.4112 4.18719 43.3651 4.14117 43.3651 4.0842Z" fill="#FFEA92"/>
<path d="M46.3317 4.99322C46.3719 4.95298 46.4371 4.95298 46.4773 4.99322L46.8778 5.39365C46.918 5.4339 46.918 5.49904 46.8778 5.53928C46.8375 5.57953 46.7724 5.57953 46.7321 5.53928L46.3317 5.13885C46.2917 5.09861 46.2917 5.03347 46.3317 4.99322Z" fill="#FFEA92"/>
<path d="M43.9678 2.62909C44.008 2.58885 44.0732 2.58885 44.1134 2.62909L44.5138 3.02952C44.5541 3.06976 44.5541 3.13491 44.5138 3.17515C44.4736 3.21539 44.4084 3.21539 44.3682 3.17515L43.9678 2.77472C43.9275 2.73468 43.9275 2.66933 43.9678 2.62909Z" fill="#FFEA92"/>
<path d="M44.5138 4.99322C44.5541 5.03347 44.5541 5.09861 44.5138 5.13885L44.1134 5.53928C44.0732 5.57953 44.008 5.57953 43.9678 5.53928C43.9275 5.49904 43.9275 5.4339 43.9678 5.39365L44.3682 4.99322C44.4084 4.95298 44.4736 4.95298 44.5138 4.99322Z" fill="#FFEA92"/>
<path d="M46.8778 2.62909C46.918 2.66933 46.918 2.73448 46.8778 2.77472L46.4773 3.17515C46.4371 3.21539 46.372 3.21539 46.3317 3.17515C46.2915 3.13491 46.2915 3.06976 46.3317 3.02952L46.7321 2.62909C46.7724 2.58905 46.8375 2.58905 46.8778 2.62909Z" fill="#FFEA92"/>
<path d="M45.6862 4.81394H45.6572C45.6344 4.35534 45.2553 3.99057 44.7912 3.99057C44.6911 3.99057 44.5951 4.0077 44.5059 4.03878C44.3951 3.65409 44.0409 3.37259 43.6207 3.37259C43.1119 3.37259 42.6996 3.78497 42.6996 4.29378C42.6996 4.32984 42.7019 4.3653 42.7059 4.40036C42.2009 4.4663 41.8108 4.89801 41.8108 5.42096C41.8108 5.98953 42.2718 6.45072 42.8406 6.45072H45.6864C46.1385 6.45072 46.5048 6.08435 46.5048 5.63233C46.5046 5.1805 46.1383 4.81394 45.6862 4.81394Z" fill="#E0EBFC"/>
<path d="M38.7204 5.61997V1.63261C38.7204 1.23457 38.3976 0.911835 37.9996 0.911835C37.6015 0.911835 37.2788 1.23457 37.2788 1.63261V5.61997C36.766 5.88234 36.4148 6.41565 36.4148 7.03144C36.4148 7.9068 37.1244 8.61642 37.9998 8.61642C38.8751 8.61642 39.5848 7.9068 39.5848 7.03144C39.5846 6.41565 39.2333 5.88254 38.7204 5.61997Z" fill="#A4C9FF"/>
<path d="M38.4389 6.05347C38.4156 6.04291 38.4 6.0202 38.4 5.9947V5.66997V1.64575C38.4 1.42522 38.2275 1.23616 38.007 1.23197C37.7824 1.22779 37.599 1.40868 37.599 1.6324V5.66977V5.9945C37.599 6.02 37.5834 6.04271 37.5601 6.05327C37.1599 6.23376 36.8895 6.65232 36.9314 7.12765C36.977 7.64742 37.4009 8.06358 37.9213 8.10064C38.5478 8.14526 39.0718 7.64821 39.0718 7.03103C39.072 6.59654 38.8116 6.22161 38.4389 6.05347Z" fill="#E0EBFC"/>
<path d="M37.9996 8.10384C38.5918 8.10384 39.072 7.62371 39.072 7.03144C39.072 6.43917 38.5918 5.95905 37.9996 5.95905C37.4073 5.95905 36.9272 6.43917 36.9272 7.03144C36.9272 7.62371 37.4073 8.10384 37.9996 8.10384Z" fill="#A4C9FF"/>
<path d="M38.4389 6.05346C38.4156 6.0429 38.4 6.02019 38.4 5.99469V5.66996V3.52219H37.599V5.66996V5.99469C37.599 6.02019 37.5834 6.0429 37.5601 6.05346C37.1599 6.23395 36.8895 6.65251 36.9314 7.12785C36.977 7.64761 37.4009 8.06378 37.9213 8.10083C38.5478 8.14546 39.0718 7.6484 39.0718 7.03123C39.072 6.59653 38.8116 6.2216 38.4389 6.05346Z" fill="#F9A7A7"/>
<path d="M38.8401 2.22009H38.1918C38.0856 2.22009 37.9996 2.13403 37.9996 2.02785C37.9996 1.92166 38.0856 1.8356 38.1918 1.8356H38.8401C38.9463 1.8356 39.0323 1.92166 39.0323 2.02785C39.0323 2.13403 38.9463 2.22009 38.8401 2.22009Z" fill="#F9CFCF"/>
<path d="M38.8401 3.18112H38.1918C38.0856 3.18112 37.9996 3.09506 37.9996 2.98888C37.9996 2.88269 38.0856 2.79663 38.1918 2.79663H38.8401C38.9463 2.79663 39.0323 2.88269 39.0323 2.98888C39.0323 3.09506 38.9463 3.18112 38.8401 3.18112Z" fill="#F9CFCF"/>
<path d="M38.8401 4.20651H38.1918C38.0856 4.20651 37.9996 4.12045 37.9996 4.01427C37.9996 3.90808 38.0856 3.82202 38.1918 3.82202H38.8401C38.9463 3.82202 39.0323 3.90808 39.0323 4.01427C39.0323 4.12045 38.9463 4.20651 38.8401 4.20651Z" fill="#F9CFCF"/>
<path d="M38.8401 5.23169H38.1918C38.0856 5.23169 37.9996 5.14563 37.9996 5.03944C37.9996 4.93326 38.0856 4.8472 38.1918 4.8472H38.8401C38.9463 4.8472 39.0323 4.93326 39.0323 5.03944C39.0323 5.14563 38.9463 5.23169 38.8401 5.23169Z" fill="#F9CFCF"/>
<path d="M47.1919 9.62884H41.4128C41.1929 9.62884 41.0144 9.45034 41.0144 9.2304V0.398438C41.0144 0.1785 41.1929 0 41.4128 0H47.1919C47.9737 0 48.6094 0.635707 48.6094 1.41744V8.2114C48.6094 8.99293 47.9737 9.62884 47.1919 9.62884ZM41.8112 8.83197H47.1919C47.5342 8.83197 47.8125 8.55366 47.8125 8.2114V1.41744C47.8125 1.07518 47.5342 0.796875 47.1919 0.796875H41.8112V8.83197V8.83197Z" fill="#3762CC"/>
<path d="M41.4128 9.62884H34.5862C34.3662 9.62884 34.1877 9.45034 34.1877 9.2304V0.398438C34.1877 0.1785 34.3662 0 34.5862 0H41.4128C41.6327 0 41.8112 0.1785 41.8112 0.398438V9.2304C41.8112 9.45034 41.6327 9.62884 41.4128 9.62884ZM34.9846 8.83197H41.0144V0.796875H34.9846V8.83197Z" fill="#3762CC"/>
<path d="M34.5862 9.62884H28.8072C28.0255 9.62884 27.3898 8.99313 27.3898 8.2114V1.41744C27.3898 0.635707 28.0255 0 28.8072 0H34.5862C34.8061 0 34.9846 0.1785 34.9846 0.398438V9.2304C34.9846 9.45034 34.8063 9.62884 34.5862 9.62884ZM28.8074 0.796875C28.4652 0.796875 28.1869 1.07518 28.1869 1.41744V8.2114C28.1869 8.55366 28.4652 8.83197 28.8074 8.83197H34.1879V0.796875H28.8074Z" fill="#3762CC"/>
<path d="M20.7897 5.57874H19.0561C18.8361 5.57874 18.6576 5.40024 18.6576 5.1803C18.6576 4.96036 18.8361 4.78186 19.0561 4.78186H20.7897C21.0096 4.78186 21.1881 4.96036 21.1881 5.1803C21.1881 5.40024 21.0098 5.57874 20.7897 5.57874Z" fill="#F9A7A7"/>
<path d="M24.6485 5.57874H22.8004C22.5804 5.57874 22.4019 5.40024 22.4019 5.1803C22.4019 4.96036 22.5804 4.78186 22.8004 4.78186H24.6485C24.8685 4.78186 25.047 4.96036 25.047 5.1803C25.047 5.40024 24.8685 5.57874 24.6485 5.57874Z" fill="#F9A7A7"/>
<path d="M28.5546 5.57874H26.821C26.6011 5.57874 26.4226 5.40024 26.4226 5.1803C26.4226 4.96036 26.6011 4.78186 26.821 4.78186H28.5546C28.7746 4.78186 28.9531 4.96036 28.9531 5.1803C28.9531 5.40024 28.7748 5.57874 28.5546 5.57874Z" fill="#F9A7A7"/>
<path d="M14.1864 6.94617H17.7028C18.5198 6.38557 19.0561 5.44565 19.0561 4.37983C19.0561 2.66137 17.6629 1.26843 15.9445 1.26843C14.226 1.26843 12.8329 2.66137 12.8329 4.37983C12.8331 5.44565 13.3696 6.38557 14.1864 6.94617Z" fill="#E0EBFC"/>
<path d="M17.7028 7.3446H14.1864C14.1059 7.3446 14.0272 7.3203 13.9608 7.27468C13.0052 6.61865 12.4346 5.5365 12.4346 4.37983C12.4346 2.44442 14.0091 0.869995 15.9445 0.869995C17.8799 0.869995 19.4545 2.44442 19.4545 4.37983C19.4545 5.53669 18.8839 6.61865 17.9283 7.27468C17.8619 7.3203 17.7835 7.3446 17.7028 7.3446ZM14.3147 6.54773H17.5747C18.255 6.03554 18.6578 5.23388 18.6578 4.37983C18.6578 2.8839 17.4408 1.66687 15.9447 1.66687C14.4487 1.66687 13.2317 2.8839 13.2317 4.37983C13.2315 5.23388 13.6341 6.03554 14.3147 6.54773Z" fill="#3762CC"/>
<path d="M29.8687 25.4026H14.2788V26.7449H29.2224L29.8687 25.4026Z" fill="#F9CFCF"/>
<path d="M29.2224 27.1434H14.2788C14.0589 27.1434 13.8804 26.9649 13.8804 26.7449V25.4026C13.8804 25.1827 14.0589 25.0042 14.2788 25.0042H29.8687C30.0057 25.0042 30.133 25.0747 30.2059 25.1906C30.2789 25.3068 30.287 25.4522 30.2275 25.5755L29.5812 26.9178C29.5149 27.0555 29.3754 27.1434 29.2224 27.1434ZM14.6772 26.3465H28.972L29.2346 25.801H14.6772V26.3465Z" fill="#3762CC"/>
<path d="M48.2109 46.1988V44.9864V44.6967V43.1534C47.9125 43.199 47.6021 43.2231 47.2834 43.2231C46.0022 43.2231 44.8569 42.8352 44.0859 42.2242C43.7307 41.9425 43.1765 41.9425 42.8211 42.2242C42.0501 42.8352 40.9048 43.2231 39.6236 43.2231C38.3424 43.2231 37.1971 42.8352 36.4262 42.2242C36.071 41.9425 35.5167 41.9425 35.1613 42.2242C34.3903 42.8354 33.245 43.2231 31.9639 43.2231C30.6829 43.2231 29.5374 42.8352 28.7664 42.2242C28.411 41.9425 27.857 41.9425 27.5016 42.2242C26.7308 42.8352 25.5853 43.2231 24.3043 43.2231C23.0233 43.2231 21.8778 42.8352 21.107 42.2242C20.7516 41.9425 20.1976 41.9425 19.8422 42.2242C19.0712 42.8352 17.9259 43.2231 16.6447 43.2231C15.3636 43.2231 14.2182 42.8352 13.4473 42.2242C13.0919 41.9425 12.5378 41.9425 12.1824 42.2242C11.4117 42.8354 10.2661 43.2231 8.98497 43.2231C7.70399 43.2231 6.55848 42.8352 5.78751 42.2242C5.4321 41.9425 4.87807 41.9425 4.52267 42.2242C3.75189 42.8352 2.60638 43.2231 1.3254 43.2231C1.00646 43.2231 0.696073 43.199 0.397842 43.1534V43.2179V43.2797V44.6967V45.1211V47.1591C0.397842 47.8193 0.932944 48.3544 1.59315 48.3544H47.015C47.6752 48.3544 48.2103 47.8193 48.2103 47.1591V46.1988H48.2109Z" fill="#A4C9FF"/>
<path d="M47.0156 48.7528H1.59375C0.714996 48.7528 0 48.0378 0 47.1591V37.7645C0 37.6484 0.0508008 37.538 0.138855 37.4623C0.226711 37.3862 0.343652 37.3535 0.458402 37.3704C0.741492 37.4137 1.03355 37.4356 1.3258 37.4356C2.46852 37.4356 3.5437 37.1029 4.27583 36.523C4.75316 36.1452 5.5586 36.145 6.03553 36.523C6.76766 37.1029 7.84264 37.4356 8.98556 37.4356C10.1285 37.4356 11.2035 37.1029 11.9354 36.523C12.4127 36.1449 13.2186 36.145 13.6955 36.523C14.4272 37.1029 15.5022 37.4356 16.6451 37.4356C17.788 37.4356 18.8632 37.1029 19.5952 36.523C20.0719 36.1452 20.8777 36.1447 21.3551 36.523C22.087 37.1029 23.162 37.4356 24.3049 37.4356C25.4478 37.4356 26.5228 37.1029 27.2547 36.523C27.7318 36.1452 28.5375 36.145 29.0146 36.523C29.7465 37.1029 30.8215 37.4356 31.9646 37.4356C33.1074 37.4356 34.1826 37.1029 34.9145 36.523C35.3916 36.1449 36.197 36.1449 36.6746 36.523C37.4063 37.1029 38.4813 37.4356 39.6242 37.4356C40.7671 37.4356 41.8421 37.1029 42.5742 36.523C43.0516 36.1452 43.857 36.145 44.3339 36.523C45.0661 37.1029 46.1411 37.4356 47.284 37.4356C47.5764 37.4356 47.8685 37.4137 48.1514 37.3704C48.2661 37.3535 48.3833 37.3864 48.4709 37.4623C48.559 37.538 48.6098 37.6484 48.6098 37.7645V47.1591C48.6094 48.0378 47.8944 48.7528 47.0156 48.7528ZM0.796875 38.2115V47.1591C0.796875 47.5985 1.15427 47.9559 1.59375 47.9559H47.0156C47.4551 47.9559 47.8125 47.5985 47.8125 47.1591V38.2115C47.6372 38.2255 47.4601 38.2325 47.2834 38.2325C45.9643 38.2325 44.7087 37.837 43.8385 37.1475C43.6514 36.9993 43.2558 36.9991 43.0687 37.1475C42.1985 37.837 40.9428 38.2325 39.6238 38.2325C38.3048 38.2325 37.0491 37.837 36.1791 37.1475C35.9921 36.9993 35.596 36.9989 35.4093 37.1475C34.5392 37.837 33.2835 38.2325 31.9645 38.2325C30.6452 38.2325 29.3895 37.837 28.5196 37.1475C28.3325 36.9993 27.9366 36.9993 27.7496 37.1475C26.8796 37.837 25.6239 38.2325 24.3049 38.2325C22.9859 38.2325 21.7302 37.837 20.8602 37.1475C20.6731 36.9993 20.2773 36.9993 20.0902 37.1475C19.2202 37.837 17.9646 38.2325 16.6453 38.2325C15.3263 38.2325 14.0706 37.837 13.2006 37.1475C13.0136 36.9993 12.6177 36.9993 12.4307 37.1475C11.5607 37.837 10.305 38.2325 8.98596 38.2325C7.66693 38.2325 6.41126 37.837 5.54107 37.1475C5.354 36.9993 4.95836 36.9991 4.77129 37.1475C3.9011 37.837 2.64543 38.2325 1.3264 38.2325C1.14929 38.2327 0.972187 38.2257 0.796875 38.2115Z" fill="#3762CC"/>
</svg>
